<svg xmlns="http://www.w3.org/2000/svg" xmlns:xlink="http://www.w3.org/1999/xlink" width="512" zoomAndPan="magnify" viewBox="0 0 384 383.999986" height="512" preserveAspectRatio="xMidYMid meet" version="1.0"><defs><clipPath id="bc7f7a1dd0"><path d="M 36.097656 0 L 347.902344 0 C 357.476562 0 366.660156 3.804688 373.425781 10.574219 C 380.195312 17.339844 384 26.523438 384 36.097656 L 384 347.902344 C 384 357.476562 380.195312 366.660156 373.425781 373.425781 C 366.660156 380.195312 357.476562 384 347.902344 384 L 36.097656 384 C 26.523438 384 17.339844 380.195312 10.574219 373.425781 C 3.804688 366.660156 0 357.476562 0 347.902344 L 0 36.097656 C 0 26.523438 3.804688 17.339844 10.574219 10.574219 C 17.339844 3.804688 26.523438 0 36.097656 0 Z M 36.097656 0 " clip-rule="nonzero"/></clipPath><clipPath id="303c1205f2"><path d="M 0 0 L 384 0 L 384 384 L 0 384 Z M 0 0 " clip-rule="nonzero"/></clipPath><clipPath id="1922ffc316"><path d="M 36.097656 0 L 347.902344 0 C 357.476562 0 366.660156 3.804688 373.425781 10.574219 C 380.195312 17.339844 384 26.523438 384 36.097656 L 384 347.902344 C 384 357.476562 380.195312 366.660156 373.425781 373.425781 C 366.660156 380.195312 357.476562 384 347.902344 384 L 36.097656 384 C 26.523438 384 17.339844 380.195312 10.574219 373.425781 C 3.804688 366.660156 0 357.476562 0 347.902344 L 0 36.097656 C 0 26.523438 3.804688 17.339844 10.574219 10.574219 C 17.339844 3.804688 26.523438 0 36.097656 0 Z M 36.097656 0 " clip-rule="nonzero"/></clipPath><clipPath id="3f10472e36"><rect x="0" width="384" y="0" height="384"/></clipPath><clipPath id="6c84a67b40"><path d="M 73 81 L 300 81 L 300 329 L 73 329 Z M 73 81 " clip-rule="nonzero"/></clipPath><clipPath id="dadd1517f5"><path d="M 6.960938 261.019531 L 126.757812 6.558594 L 336.433594 105.265625 L 216.640625 359.730469 Z M 6.960938 261.019531 " clip-rule="nonzero"/></clipPath><clipPath id="4e17cfdf11"><path d="M 6.960938 261.019531 L 126.757812 6.558594 L 336.433594 105.265625 L 216.640625 359.730469 Z M 6.960938 261.019531 " clip-rule="nonzero"/></clipPath></defs><g clip-path="url(#bc7f7a1dd0)"><g><g clip-path="url(#3f10472e36)"><g clip-path="url(#303c1205f2)"><g clip-path="url(#1922ffc316)"><rect x="-84.48" width="552.96" fill="#1f2b5b" height="552.959979" y="-84.479997" fill-opacity="1"/></g></g></g></g></g><g clip-path="url(#6c84a67b40)"><g clip-path="url(#dadd1517f5)"><g clip-path="url(#4e17cfdf11)"><path fill="#ffffff" d="M 248.730469 283.890625 L 227.570312 225.078125 C 226.484375 222.066406 228.054688 218.738281 231.0625 217.65625 L 282.882812 199.007812 C 288.46875 197 291.375 190.820312 289.367188 185.238281 L 282.886719 167.226562 C 281.910156 164.519531 279.941406 162.355469 277.339844 161.132812 C 274.738281 159.90625 271.820312 159.769531 269.113281 160.742188 L 183.695312 191.476562 C 178.113281 193.484375 175.203125 199.664062 177.210938 205.25 L 210.464844 297.660156 C 212.472656 303.242188 218.652344 306.152344 224.238281 304.144531 L 242.246094 297.660156 C 245.042969 296.65625 247.164062 294.609375 248.339844 292.117188 C 249.511719 289.621094 249.738281 286.683594 248.730469 283.890625 Z M 298.980469 106.484375 L 292.5 88.46875 C 291.523438 85.761719 289.554688 83.601562 286.957031 82.375 C 284.355469 81.152344 281.429688 81.011719 278.726562 81.984375 L 159.707031 124.8125 C 154.125 126.820312 151.214844 133 153.222656 138.585938 L 159.707031 156.597656 C 161.714844 162.179688 167.894531 165.089844 173.476562 163.082031 L 292.5 120.253906 C 295.289062 119.25 297.410156 117.203125 298.585938 114.707031 C 299.757812 112.214844 299.984375 109.273438 298.980469 106.484375 Z M 181.3125 316.238281 C 180.085938 318.839844 177.925781 320.808594 175.21875 321.78125 L 157.207031 328.261719 C 154.5 329.234375 151.578125 329.097656 148.976562 327.871094 C 146.375 326.648438 144.410156 324.484375 143.433594 321.777344 L 73.9375 128.636719 C 71.925781 123.054688 74.835938 116.875 80.421875 114.863281 L 98.433594 108.386719 C 104.015625 106.375 110.195312 109.28125 112.203125 114.867188 L 181.703125 308.007812 C 182.675781 310.714844 182.535156 313.636719 181.3125 316.238281 " fill-opacity="1" fill-rule="nonzero"/></g></g></g></svg>