<svg xmlns="http://www.w3.org/2000/svg" xmlns:xlink="http://www.w3.org/1999/xlink" width="512" zoomAndPan="magnify" viewBox="0 0 384 383.999986" height="512" preserveAspectRatio="xMidYMid meet" version="1.0"><defs><clipPath id="6a4a95a1fc"><path d="M 38.398438 38.398438 L 345.601562 38.398438 L 345.601562 345.601562 L 38.398438 345.601562 Z M 38.398438 38.398438 " clip-rule="nonzero"/></clipPath><clipPath id="5814317378"><path d="M 74.496094 38.398438 L 309.503906 38.398438 C 329.4375 38.398438 345.601562 54.5625 345.601562 74.496094 L 345.601562 309.503906 C 345.601562 329.4375 329.4375 345.601562 309.503906 345.601562 L 74.496094 345.601562 C 54.5625 345.601562 38.398438 329.4375 38.398438 309.503906 L 38.398438 74.496094 C 38.398438 54.5625 54.5625 38.398438 74.496094 38.398438 Z M 74.496094 38.398438 " clip-rule="nonzero"/></clipPath><clipPath id="b04804d64a"><path d="M 0.398438 0.398438 L 307.601562 0.398438 L 307.601562 307.601562 L 0.398438 307.601562 Z M 0.398438 0.398438 " clip-rule="nonzero"/></clipPath><clipPath id="4788ffdda4"><path d="M 36.496094 0.398438 L 271.503906 0.398438 C 291.4375 0.398438 307.601562 16.5625 307.601562 36.496094 L 307.601562 271.503906 C 307.601562 291.4375 291.4375 307.601562 271.503906 307.601562 L 36.496094 307.601562 C 16.5625 307.601562 0.398438 291.4375 0.398438 271.503906 L 0.398438 36.496094 C 0.398438 16.5625 16.5625 0.398438 36.496094 0.398438 Z M 36.496094 0.398438 " clip-rule="nonzero"/></clipPath><clipPath id="0a93cd2b25"><rect x="0" width="308" y="0" height="308"/></clipPath><clipPath id="29af4e0f54"><path d="M 97 103 L 279 103 L 279 302 L 97 302 Z M 97 103 " clip-rule="nonzero"/></clipPath><clipPath id="91da2f532a"><path d="M 43.96875 247.210938 L 139.804688 43.640625 L 307.410156 122.546875 L 211.578125 326.113281 Z M 43.96875 247.210938 " clip-rule="nonzero"/></clipPath><clipPath id="3d2b51b591"><path d="M 43.96875 247.210938 L 139.804688 43.640625 L 307.410156 122.546875 L 211.578125 326.113281 Z M 43.96875 247.210938 " clip-rule="nonzero"/></clipPath></defs><g clip-path="url(#6a4a95a1fc)"><g clip-path="url(#5814317378)"><g transform="matrix(1, 0, 0, 1, 38, 38)"><g clip-path="url(#0a93cd2b25)"><g clip-path="url(#b04804d64a)"><g clip-path="url(#4788ffdda4)"><path fill="#1f2b5b" d="M 0.398438 0.398438 L 307.601562 0.398438 L 307.601562 307.601562 L 0.398438 307.601562 Z M 0.398438 0.398438 " fill-opacity="1" fill-rule="nonzero"/></g></g></g></g></g></g><g clip-path="url(#29af4e0f54)"><g clip-path="url(#91da2f532a)"><g clip-path="url(#3d2b51b591)"><path fill="#ffffff" d="M 237.351562 265.503906 L 220.425781 218.460938 C 219.558594 216.054688 220.816406 213.390625 223.222656 212.527344 L 264.671875 197.609375 C 269.136719 196.003906 271.464844 191.0625 269.855469 186.597656 L 264.671875 172.1875 C 263.894531 170.023438 262.316406 168.292969 260.238281 167.3125 C 258.15625 166.332031 255.820312 166.222656 253.65625 167 L 185.332031 191.585938 C 180.867188 193.191406 178.542969 198.136719 180.148438 202.601562 L 206.746094 276.519531 C 208.351562 280.984375 213.292969 283.3125 217.761719 281.703125 L 232.167969 276.519531 C 234.402344 275.714844 236.101562 274.078125 237.039062 272.085938 C 237.976562 270.089844 238.15625 267.738281 237.351562 265.503906 Z M 277.546875 123.601562 L 272.363281 109.195312 C 271.582031 107.03125 270.007812 105.296875 267.929688 104.320312 C 265.847656 103.339844 263.507812 103.226562 261.34375 104.007812 L 166.148438 138.261719 C 161.679688 139.871094 159.355469 144.8125 160.960938 149.28125 L 166.144531 163.6875 C 167.753906 168.152344 172.695312 170.480469 177.160156 168.871094 L 272.359375 134.617188 C 274.59375 133.8125 276.292969 132.175781 277.230469 130.179688 C 278.167969 128.1875 278.351562 125.835938 277.546875 123.601562 Z M 183.425781 291.378906 C 182.449219 293.457031 180.71875 295.03125 178.554688 295.8125 L 164.144531 300.996094 C 161.980469 301.773438 159.644531 301.664062 157.5625 300.683594 C 155.484375 299.703125 153.910156 297.972656 153.128906 295.808594 L 97.539062 141.324219 C 95.933594 136.855469 98.257812 131.914062 102.726562 130.304688 L 117.132812 125.125 C 121.601562 123.515625 126.542969 125.839844 128.148438 130.308594 L 183.738281 284.796875 C 184.519531 286.960938 184.40625 289.296875 183.425781 291.378906 " fill-opacity="1" fill-rule="nonzero"/></g></g></g></svg>